<svg width="40" height="40" viewBox="0 0 40 40" fill="none" xmlns="http://www.w3.org/2000/svg">
<rect width="40" height="40" fill="#181818"/>
<path fill-rule="evenodd" clip-rule="evenodd" d="M14.0606 16.6532C13.9669 16.7469 13.8833 16.8539 13.825 16.985C13.7662 17.1175 13.7408 17.2574 13.7408 17.4074C13.7408 17.5574 13.7662 17.6973 13.825 17.8298C13.8833 17.9609 13.9669 18.0679 14.0606 18.1616L19.2458 23.3468C19.6723 23.7733 20.3278 23.7733 20.7542 23.3468L25.9394 18.1616C26.3659 17.7352 26.3659 17.0797 25.9394 16.6532C25.513 16.2267 24.8575 16.2267 24.431 16.6532L20 21.0841L15.5691 16.6532C15.1426 16.2267 14.4871 16.2267 14.0606 16.6532Z" fill="white"/>
</svg>
