<svg width="24" height="24" viewBox="0 0 24 24" fill="none" xmlns="http://www.w3.org/2000/svg">
<path d="M3 17V16.75C3 16.15 3.4 15.75 4 15.75C4.6 15.75 5 16.15 5 16.75V17C5 18.1 5.9 19 7 19H17C18.1 19 19 18.1 19 17V16.75C19 16.15 19.4 15.75 20 15.75C20.6 15.75 21 16.15 21 16.75V17C21 19.2 19.2 21 17 21H7C4.8 21 3 19.2 3 17Z" fill="white"/>
<path d="M8 12C8 11.7 8.1 11.5 8.3 11.3C8.7 10.9 9.3 10.9 9.7 11.3L12 13.6L14.3 11.3C14.7 10.9 15.3 10.9 15.7 11.3C16.1 11.7 16.1 12.3 15.7 12.7L12.7 15.7C12.3 16.1 11.7 16.1 11.3 15.7L8.3 12.7C8.1 12.5 8 12.3 8 12Z" fill="white"/>
<path d="M11 13L11 3.99999C11 3.39999 11.4 2.99999 12 2.99999C12.6 2.99999 13 3.39999 13 3.99999L13 13C13 13.6 12.6 14 12 14C11.4 14 11 13.6 11 13Z" fill="white"/>
</svg>
