<svg width="32" height="32" viewBox="0 0 32 32" fill="none" xmlns="http://www.w3.org/2000/svg">
<path d="M9.33333 4L18.6667 4C19.4667 4 20 4.53333 20 5.33333C20 6.13333 19.4667 6.66667 18.6667 6.66667L9.33333 6.66667C7.86667 6.66667 6.66667 7.86667 6.66667 9.33333L6.66667 22.6667C6.66667 24.1333 7.86666 25.3333 9.33333 25.3333L18.6667 25.3333C19.4667 25.3333 20 25.8667 20 26.6667C20 27.4667 19.4667 28 18.6667 28L9.33333 28C6.4 28 4 25.6 4 22.6667L4 9.33333C4 6.4 6.4 4 9.33333 4Z" fill="white"/>
<path d="M22.6667 21.3333C22.2667 21.3333 22 21.2 21.7333 20.9333C21.2 20.4 21.2 19.6 21.7333 19.0667L24.8 16L21.7333 12.9333C21.2 12.4 21.2 11.6 21.7333 11.0667C22.2667 10.5333 23.0667 10.5333 23.6 11.0667L27.6 15.0667C28.1333 15.6 28.1333 16.4 27.6 16.9333L23.6 20.9333C23.3333 21.2 23.0667 21.3333 22.6667 21.3333Z" fill="white"/>
<path d="M24 17.3333L12 17.3333C11.2 17.3333 10.6666 16.8 10.6666 16C10.6666 15.2 11.2 14.6667 12 14.6667L24 14.6667C24.8 14.6667 25.3333 15.2 25.3333 16C25.3333 16.8 24.8 17.3333 24 17.3333Z" fill="white"/>
</svg>
