<svg width="112" height="112" viewBox="0 0 112 112" fill="none" xmlns="http://www.w3.org/2000/svg">
<circle cx="56" cy="56" r="56" fill="black"/>
<path d="M70.2589 43.5979V49.4733H41.7411V30.5653C41.7102 29.2457 41.9507 27.9339 42.4477 26.711C42.9447 25.4882 43.6875 24.3805 44.6303 23.4566C45.4453 22.6171 46.4205 21.9497 47.4982 21.4939C48.5758 21.0381 49.734 20.8033 50.9041 20.8033C52.0741 20.8033 53.2323 21.0381 54.31 21.4939C55.3876 21.9497 56.3628 22.6171 57.1779 23.4566C58.797 25.0511 59.8007 27.1664 60.0116 29.429L70.2589 20.5882V27.7316L60.462 36.2052L60.0671 36.5377V41.2353H55.3626V30.5653C55.3601 30.0915 55.2604 29.6232 55.0698 29.1894C54.8791 28.7556 54.6014 28.3655 54.254 28.0433C53.352 27.1835 52.1537 26.7038 50.9075 26.7038C49.6614 26.7038 48.463 27.1835 47.561 28.0433C47.2123 28.3649 46.9334 28.7547 46.7415 29.1886C46.5496 29.6224 46.4489 30.091 46.4455 30.5653V43.5979H70.2589Z" fill="white"/>
<path d="M26.3666 83.1183H20.5882V54.6351H24.8632L35.5192 70.6539L32.2559 75.5731L26.3666 66.7115V83.1183ZM48.4964 54.6351L33.406 77.2983L36.6832 82.2176L46.9929 66.6838V83.1183H52.7644V54.6351H48.4964Z" fill="white"/>
<path d="M85.6334 66.6838L79.7441 75.5454L76.4808 70.6261L87.1369 54.6351H91.4118V83.146H85.6334V66.6838ZM59.2356 54.6351V83.146H65.0071V66.6838L75.3099 82.2176L78.594 77.2983L63.5036 54.6351H59.2356Z" fill="#A97C50"/>
</svg>
