<svg width="32" height="32" viewBox="0 0 32 32" fill="none" xmlns="http://www.w3.org/2000/svg">
<path fill-rule="evenodd" clip-rule="evenodd" d="M32 16C32 7.16344 24.8366 -3.86258e-07 16 0C7.16344 3.86258e-07 -3.86258e-07 7.16344 0 16C3.86258e-07 24.8366 7.16344 32 16 32C24.8366 32 32 24.8366 32 16Z" fill="#F4F4F4"/>
<path fill-rule="evenodd" clip-rule="evenodd" d="M11.8877 12.9925C11.8877 15.2283 13.6444 16.985 15.8802 16.985C18.116 16.985 19.8727 15.2283 19.8727 12.9925C19.8727 10.7567 18.116 9 15.8802 9C13.6444 9 11.8877 10.7567 11.8877 12.9925ZM13.4847 12.9925C13.4847 11.6351 14.5228 10.597 15.8802 10.597C17.2377 10.597 18.2757 11.6351 18.2757 12.9925C18.2757 14.35 17.2377 15.388 15.8802 15.388C14.5228 15.388 13.4847 14.35 13.4847 12.9925ZM8.13475 21.7761C8.2146 22.0156 8.534 22.1753 8.77355 22.1753C8.93325 22.1753 9.09295 22.1753 9.25265 22.0955L12.6862 19.9395C12.8459 19.8596 13.1653 19.7798 13.4049 19.9395C14.7623 20.5783 17.4772 20.4984 18.7548 19.8596C18.9944 19.6999 19.2339 19.7798 19.3936 19.8596L22.7473 22.0955C23.1466 22.335 23.6257 22.2552 23.8653 21.8559C24.1048 21.4567 24.025 20.9775 23.6257 20.738L20.272 18.5022C19.6332 18.1029 18.7548 18.0231 18.0362 18.4223C17.1578 18.8216 15.0019 18.8216 14.1235 18.4223C13.325 18.1029 12.4467 18.1029 11.8079 18.582L8.3743 20.738C7.97505 20.9775 7.8952 21.4566 8.13475 21.7761Z" fill="#181818"/>
</svg>
