<svg width="32" height="32" viewBox="0 0 32 32" fill="none" xmlns="http://www.w3.org/2000/svg">
<path d="M8 15C7.44772 15 7 15.4477 7 16C7 16.5523 7.44772 17 8 17V15ZM24 17C24.5523 17 25 16.5523 25 16C25 15.4477 24.5523 15 24 15V17ZM8 21.3333C7.44772 21.3333 7 21.781 7 22.3333C7 22.8856 7.44772 23.3333 8 23.3333V21.3333ZM24 23.3333C24.5523 23.3333 25 22.8856 25 22.3333C25 21.781 24.5523 21.3333 24 21.3333V23.3333ZM8 8.66669C7.44772 8.66669 7 9.1144 7 9.66669C7 10.219 7.44772 10.6667 8 10.6667V8.66669ZM24 10.6667C24.5523 10.6667 25 10.219 25 9.66669C25 9.1144 24.5523 8.66669 24 8.66669V10.6667ZM8 17H24V15H8V17ZM8 23.3333H24V21.3333H8V23.3333ZM8 10.6667H24V8.66669H8V10.6667Z" fill="white"/>
</svg>
