<svg width="20" height="20" viewBox="0 0 20 20" fill="none" xmlns="http://www.w3.org/2000/svg">
<path d="M2.35824 13.7416C3.74376 15.1291 5.58884 15.9621 7.54589 16.0835C9.50294 16.205 11.4368 15.6066 12.9833 14.401L18.3043 19.7221C18.493 19.9043 18.7458 20.0052 19.0081 20.0029C19.2705 20.0006 19.5214 19.8954 19.7069 19.7099C19.8925 19.5244 19.9977 19.2734 20 19.0111C20.0022 18.7487 19.9014 18.496 19.7191 18.3073L14.3981 12.9862C15.6571 11.3705 16.2524 9.33529 16.0624 7.29575C15.8725 5.25621 14.9117 3.36593 13.376 2.01043C11.8403 0.654928 9.84534 -0.0637017 7.798 0.00110091C5.75066 0.0659035 3.80515 0.909257 2.35824 2.35917C1.61061 3.10641 1.01754 3.99364 0.612902 4.97017C0.208267 5.94669 0 6.99337 0 8.05041C0 9.10745 0.208267 10.1541 0.612902 11.1306C1.01754 12.1072 1.61061 12.9944 2.35824 13.7416ZM3.77304 3.77597C4.76218 2.78686 6.06367 2.1713 7.45577 2.03418C8.84787 1.89706 10.2444 2.24685 11.4076 3.02397C12.5707 3.80108 13.4284 4.95744 13.8345 6.29602C14.2406 7.63461 14.17 9.07259 13.6348 10.365C13.0996 11.6574 12.1328 12.7242 10.8992 13.3837C9.66563 14.0433 8.24152 14.2546 6.86953 13.9819C5.49754 13.7091 4.26257 12.9691 3.37501 11.8879C2.48746 10.8067 2.00225 9.45124 2.00204 8.05241C1.99929 7.25753 2.15443 6.47002 2.45844 5.73557C2.76246 5.00112 3.2093 4.33436 3.77304 3.77397V3.77597Z" fill="white"/>
</svg>
