<svg width="32" height="32" viewBox="0 0 32 32" fill="none" xmlns="http://www.w3.org/2000/svg">
<path fill-rule="evenodd" clip-rule="evenodd" d="M16 2C23.732 2 30 8.26801 30 16C30 23.732 23.732 30 16 30C8.26801 30 2 23.732 2 16C2 8.26801 8.26801 2 16 2ZM16 0C24.8366 0 32 7.16344 32 16C32 24.8366 24.8366 32 16 32C7.16344 32 0 24.8366 0 16C0 7.16344 7.16344 0 16 0ZM22.175 18.3483C22.1167 18.4794 22.0331 18.5864 21.9394 18.6801C21.5129 19.1066 20.8574 19.1066 20.4309 18.6801L16 14.2492L11.569 18.6801C11.1425 19.1066 10.487 19.1066 10.0606 18.6801C9.6341 18.2537 9.6341 17.5982 10.0606 17.1717L15.2458 11.9865C15.6722 11.56 16.3277 11.56 16.7542 11.9865L21.9394 17.1717C22.0331 17.2655 22.1167 17.3725 22.175 17.5035C22.2338 17.636 22.2592 17.7759 22.2592 17.9259C22.2592 18.0759 22.2338 18.2158 22.175 18.3483Z" fill="white"/>
</svg>
